<?xml version="1.0" encoding="UTF-8"?>
<svg xmlns="http://www.w3.org/2000/svg"
     xmlns:xlink="http://www.w3.org/1999/xlink"
     xmlns:gadfly="http://www.gadflyjl.org/ns"
     version="1.2"
     width="141.42mm" height="100mm" viewBox="0 0 141.42 100"
     stroke="none"
     fill="#000000"
     stroke-width="0.3"
     font-size="3.88"
>
<g class="plotroot xscalable yscalable" id="img-0cf9f810-1">
  <g font-size="3.88" font-family="'PT Sans','Helvetica Neue','Helvetica',sans-serif" fill="#564A55" stroke="#000000" stroke-opacity="0.000" id="img-0cf9f810-2">
    <g transform="translate(77.41,89.18)">
      <g class="primitive">
        <text text-anchor="middle" dy="0.6em">Re</text>
      </g>
    </g>
  </g>
  <g class="guide xlabels" font-size="2.82" font-family="'PT Sans Caption','Helvetica Neue','Helvetica',sans-serif" fill="#6C606B" id="img-0cf9f810-3">
    <g transform="translate(40.88,83.06)">
      <g class="primitive">
        <text text-anchor="middle" dy="0.6em">-10</text>
      </g>
    </g>
    <g transform="translate(59.15,83.06)">
      <g class="primitive">
        <text text-anchor="middle" dy="0.6em">-5</text>
      </g>
    </g>
    <g transform="translate(77.41,83.06)">
      <g class="primitive">
        <text text-anchor="middle" dy="0.6em">0</text>
      </g>
    </g>
    <g transform="translate(95.68,83.06)">
      <g class="primitive">
        <text text-anchor="middle" dy="0.6em">5</text>
      </g>
    </g>
    <g transform="translate(113.95,83.06)">
      <g class="primitive">
        <text text-anchor="middle" dy="0.6em">10</text>
      </g>
    </g>
  </g>
  <g clip-path="url(#img-0cf9f810-4)">
    <g id="img-0cf9f810-5">
      <g pointer-events="visible" opacity="1" fill="#000000" fill-opacity="0.000" stroke="#000000" stroke-opacity="0.000" class="guide background" id="img-0cf9f810-6">
        <g transform="translate(77.41,43.53)">
          <path d="M-38.53,-38.53 L 38.53 -38.53 38.53 38.53 -38.53 38.53 z" class="primitive"/>
        </g>
      </g>
      <g class="guide ygridlines xfixed" stroke-dasharray="0.5,0.5" stroke-width="0.2" stroke="#D0D0E0" id="img-0cf9f810-7">
        <g transform="translate(77.41,80.06)">
          <path fill="none" d="M-38.53,0 L 38.53 0" class="primitive"/>
        </g>
        <g transform="translate(77.41,61.8)">
          <path fill="none" d="M-38.53,0 L 38.53 0" class="primitive"/>
        </g>
        <g transform="translate(77.41,43.53)">
          <path fill="none" d="M-38.53,0 L 38.53 0" class="primitive"/>
        </g>
        <g transform="translate(77.41,25.27)">
          <path fill="none" d="M-38.53,0 L 38.53 0" class="primitive"/>
        </g>
        <g transform="translate(77.41,7)">
          <path fill="none" d="M-38.53,0 L 38.53 0" class="primitive"/>
        </g>
      </g>
      <g class="guide xgridlines yfixed" stroke-dasharray="0.5,0.5" stroke-width="0.2" stroke="#D0D0E0" id="img-0cf9f810-8">
        <g transform="translate(40.88,43.53)">
          <path fill="none" d="M0,-38.53 L 0 38.53" class="primitive"/>
        </g>
        <g transform="translate(59.15,43.53)">
          <path fill="none" d="M0,-38.53 L 0 38.53" class="primitive"/>
        </g>
        <g transform="translate(77.41,43.53)">
          <path fill="none" d="M0,-38.53 L 0 38.53" class="primitive"/>
        </g>
        <g transform="translate(95.68,43.53)">
          <path fill="none" d="M0,-38.53 L 0 38.53" class="primitive"/>
        </g>
        <g transform="translate(113.95,43.53)">
          <path fill="none" d="M0,-38.53 L 0 38.53" class="primitive"/>
        </g>
      </g>
      <g class="plotpanel" id="img-0cf9f810-9">
        <metadata>
          <boundingbox value="38.88428922976587mm 5.0mm 77.0611111111111mm 77.0611111111111mm"/>
          <unitbox value="-10.547486883126759 10.547486883126759 21.094973766253517 -21.094973766253517"/>
        </metadata>
        <g stroke-width="0.3" fill="#000000" fill-opacity="0.000" class="geometry" id="img-0cf9f810-10">
          <g class="color_LCHab{Float32}(70.0f0,60.0f0,240.0f0)" stroke-dasharray="none" stroke="#00BFFF" id="img-0cf9f810-11">
            <g transform="translate(77.41,61.63)">
              <path fill="none" d="M0,-1.3 L 1.03 -0.87 1.46 0.16 1.03 1.2 0 1.62 -1.03 1.2 -1.46 0.16 -1.03 -0.87 0 -1.3" class="primitive"/>
            </g>
          </g>
        </g>
        <g stroke-width="0.3" fill="#000000" fill-opacity="0.000" class="geometry" id="img-0cf9f810-12">
          <g class="color_LCHab{Float32}(70.0f0,60.0f0,240.0f0)" stroke-dasharray="none" stroke="#00BFFF" id="img-0cf9f810-13">
            <g transform="translate(77.33,43.53)">
              <path fill="none" d="M-0.65,0 L -0.44 -0.52 0.08 -0.73 0.6 -0.52 0.81 0 0.6 0.52 0.08 0.73 -0.44 0.52 -0.65 0" class="primitive"/>
            </g>
          </g>
        </g>
        <g stroke-width="0.3" fill="#000000" fill-opacity="0.000" class="geometry" id="img-0cf9f810-14">
          <g class="color_LCHab{Float32}(70.0f0,60.0f0,240.0f0)" stroke-dasharray="none" stroke="#00BFFF" id="img-0cf9f810-15">
            <g transform="translate(63.17,51.76)">
              <path fill="none" d="M-4.02,23.41 L 13.52 -6.96 12.79 -8.23 -22.28 -8.23" class="primitive"/>
            </g>
          </g>
        </g>
        <g stroke-width="0.3" fill="#000000" fill-opacity="0.000" class="geometry" id="img-0cf9f810-16">
          <g class="color_LCHab{Float32}(70.0f0,60.0f0,240.0f0)" stroke-dasharray="none" stroke="#00BFFF" id="img-0cf9f810-17">
            <g transform="translate(91.86,46.79)">
              <path fill="none" d="M22.08,-3.26 L 1.62 -3.26 1.2 -4.3 0.16 -4.73 -0.87 -4.3 -1.3 -3.26 -12.99 -3.26 -13.72 -2 3.82 28.37" class="primitive"/>
            </g>
          </g>
        </g>
        <g stroke-width="0.3" fill="#000000" fill-opacity="0.000" class="geometry" id="img-0cf9f810-18">
          <g class="color_LCHab{Float32}(70.0f0,60.0f0,240.0f0)" stroke-dasharray="none" stroke="#00BFFF" id="img-0cf9f810-19">
            <g transform="translate(84.37,27.78)">
              <path fill="none" d="M-25.23,-15.89 L -7.69 14.48 -6.23 14.48 -0.38 4.36 0.72 4.5 1.61 3.82 1.76 2.71 1.08 1.83 3.27 -1.97 4.38 -1.82 5.26 -2.5 5.41 -3.61 4.73 -4.5 11.31 -15.89" class="primitive"/>
            </g>
          </g>
        </g>
      </g>
    </g>
  </g>
  <g class="guide ylabels" font-size="2.82" font-family="'PT Sans Caption','Helvetica Neue','Helvetica',sans-serif" fill="#6C606B" id="img-0cf9f810-20">
    <g transform="translate(37.88,80.06)">
      <g class="primitive">
        <text text-anchor="end" dy="0.35em">-10</text>
      </g>
    </g>
    <g transform="translate(37.88,61.8)">
      <g class="primitive">
        <text text-anchor="end" dy="0.35em">-5</text>
      </g>
    </g>
    <g transform="translate(37.88,43.53)">
      <g class="primitive">
        <text text-anchor="end" dy="0.35em">0</text>
      </g>
    </g>
    <g transform="translate(37.88,25.27)">
      <g class="primitive">
        <text text-anchor="end" dy="0.35em">5</text>
      </g>
    </g>
    <g transform="translate(37.88,7)">
      <g class="primitive">
        <text text-anchor="end" dy="0.35em">10</text>
      </g>
    </g>
  </g>
  <g font-size="3.88" font-family="'PT Sans','Helvetica Neue','Helvetica',sans-serif" fill="#564A55" stroke="#000000" stroke-opacity="0.000" id="img-0cf9f810-21">
    <g transform="translate(28.89,41.53)">
      <g class="primitive">
        <text text-anchor="middle" dy="0.35em" transform="rotate(-90,0, 2)">Im</text>
      </g>
    </g>
  </g>
</g>
<defs>
  <clipPath id="img-0cf9f810-4">
    <path d="M38.88,5 L 115.95 5 115.95 82.06 38.88 82.06" />
  </clipPath>
</defs>
</svg>
