<?xml version="1.0" encoding="UTF-8"?>
<svg xmlns="http://www.w3.org/2000/svg"
     xmlns:xlink="http://www.w3.org/1999/xlink"
     xmlns:gadfly="http://www.gadflyjl.org/ns"
     version="1.2"
     width="141.42mm" height="100mm" viewBox="0 0 141.42 100"
     stroke="none"
     fill="#000000"
     stroke-width="0.3"
     font-size="3.88"
>
<g class="plotroot xscalable yscalable" id="img-bcdd7c3b-1">
  <g font-size="3.88" font-family="'PT Sans','Helvetica Neue','Helvetica',sans-serif" fill="#564A55" stroke="#000000" stroke-opacity="0.000" id="img-bcdd7c3b-2">
    <g transform="translate(77.41,89.18)">
      <g class="primitive">
        <text text-anchor="middle" dy="0.6em">Re</text>
      </g>
    </g>
  </g>
  <g class="guide xlabels" font-size="2.82" font-family="'PT Sans Caption','Helvetica Neue','Helvetica',sans-serif" fill="#6C606B" id="img-bcdd7c3b-3">
    <g transform="translate(40.88,83.06)">
      <g class="primitive">
        <text text-anchor="middle" dy="0.6em">-10</text>
      </g>
    </g>
    <g transform="translate(59.15,83.06)">
      <g class="primitive">
        <text text-anchor="middle" dy="0.6em">-5</text>
      </g>
    </g>
    <g transform="translate(77.41,83.06)">
      <g class="primitive">
        <text text-anchor="middle" dy="0.6em">0</text>
      </g>
    </g>
    <g transform="translate(95.68,83.06)">
      <g class="primitive">
        <text text-anchor="middle" dy="0.6em">5</text>
      </g>
    </g>
    <g transform="translate(113.95,83.06)">
      <g class="primitive">
        <text text-anchor="middle" dy="0.6em">10</text>
      </g>
    </g>
  </g>
  <g clip-path="url(#img-bcdd7c3b-4)">
    <g id="img-bcdd7c3b-5">
      <g pointer-events="visible" opacity="1" fill="#000000" fill-opacity="0.000" stroke="#000000" stroke-opacity="0.000" class="guide background" id="img-bcdd7c3b-6">
        <g transform="translate(77.41,43.53)">
          <path d="M-38.53,-38.53 L 38.53 -38.53 38.53 38.53 -38.53 38.53 z" class="primitive"/>
        </g>
      </g>
      <g class="guide ygridlines xfixed" stroke-dasharray="0.5,0.5" stroke-width="0.2" stroke="#D0D0E0" id="img-bcdd7c3b-7">
        <g transform="translate(77.41,80.06)">
          <path fill="none" d="M-38.53,0 L 38.53 0" class="primitive"/>
        </g>
        <g transform="translate(77.41,61.8)">
          <path fill="none" d="M-38.53,0 L 38.53 0" class="primitive"/>
        </g>
        <g transform="translate(77.41,43.53)">
          <path fill="none" d="M-38.53,0 L 38.53 0" class="primitive"/>
        </g>
        <g transform="translate(77.41,25.27)">
          <path fill="none" d="M-38.53,0 L 38.53 0" class="primitive"/>
        </g>
        <g transform="translate(77.41,7)">
          <path fill="none" d="M-38.53,0 L 38.53 0" class="primitive"/>
        </g>
      </g>
      <g class="guide xgridlines yfixed" stroke-dasharray="0.5,0.5" stroke-width="0.2" stroke="#D0D0E0" id="img-bcdd7c3b-8">
        <g transform="translate(40.88,43.53)">
          <path fill="none" d="M0,-38.53 L 0 38.53" class="primitive"/>
        </g>
        <g transform="translate(59.15,43.53)">
          <path fill="none" d="M0,-38.53 L 0 38.53" class="primitive"/>
        </g>
        <g transform="translate(77.41,43.53)">
          <path fill="none" d="M0,-38.53 L 0 38.53" class="primitive"/>
        </g>
        <g transform="translate(95.68,43.53)">
          <path fill="none" d="M0,-38.53 L 0 38.53" class="primitive"/>
        </g>
        <g transform="translate(113.95,43.53)">
          <path fill="none" d="M0,-38.53 L 0 38.53" class="primitive"/>
        </g>
      </g>
      <g class="plotpanel" id="img-bcdd7c3b-9">
        <metadata>
          <boundingbox value="38.88428922976587mm 5.0mm 77.0611111111111mm 77.0611111111111mm"/>
          <unitbox value="-10.547486883126759 10.547486883126759 21.094973766253517 -21.094973766253517"/>
        </metadata>
        <g stroke-width="0.3" fill="#000000" fill-opacity="0.000" class="geometry" id="img-bcdd7c3b-10">
          <g class="color_LCHab{Float32}(70.0f0,60.0f0,240.0f0)" stroke-dasharray="none" stroke="#00BFFF" id="img-bcdd7c3b-11">
            <g transform="translate(77.41,61.71)">
              <path fill="none" d="M0,-0.67 L 0.53 -0.45 0.76 0.08 0.53 0.62 0 0.84 -0.53 0.62 -0.76 0.08 -0.53 -0.45 0 -0.67" class="primitive"/>
            </g>
          </g>
        </g>
        <g stroke-width="0.3" fill="#000000" fill-opacity="0.000" class="geometry" id="img-bcdd7c3b-12">
          <g class="color_LCHab{Float32}(70.0f0,60.0f0,240.0f0)" stroke-dasharray="none" stroke="#00BFFF" id="img-bcdd7c3b-13">
            <g transform="translate(77.37,43.53)">
              <path fill="none" d="M-0.34,-0 L -0.23 -0.27 0.04 -0.38 0.31 -0.27 0.42 -0 0.31 0.27 0.04 0.38 -0.23 0.27 -0.34 -0" class="primitive"/>
            </g>
          </g>
        </g>
        <g stroke-width="0.3" fill="#000000" fill-opacity="0.000" class="geometry" id="img-bcdd7c3b-14">
          <g class="color_LCHab{Float32}(70.0f0,60.0f0,240.0f0)" stroke-dasharray="none" stroke="#00BFFF" id="img-bcdd7c3b-15">
            <g transform="translate(84.68,30.95)">
              <path fill="none" d="M-0.34,0.58 L -0.69 0.12 -0.61 -0.45 -0.15 -0.8 0.42 -0.73 0.77 -0.27 0.7 0.31 0.24 0.66 -0.34 0.58" class="primitive"/>
            </g>
          </g>
        </g>
        <g stroke-width="0.3" fill="#000000" fill-opacity="0.000" class="geometry" id="img-bcdd7c3b-16">
          <g class="color_LCHab{Float32}(70.0f0,60.0f0,240.0f0)" stroke-dasharray="none" stroke="#00BFFF" id="img-bcdd7c3b-17">
            <g transform="translate(77.41,25.35)">
              <path fill="none" d="M0,0.67 L -0.53 0.45 -0.76 -0.08 -0.53 -0.62 0 -0.84 0.53 -0.62 0.76 -0.08 0.53 0.45 0 0.67" class="primitive"/>
            </g>
          </g>
        </g>
        <g stroke-width="0.3" fill="#000000" fill-opacity="0.000" class="geometry" id="img-bcdd7c3b-18">
          <g class="color_LCHab{Float32}(70.0f0,60.0f0,240.0f0)" stroke-dasharray="none" stroke="#00BFFF" id="img-bcdd7c3b-19">
            <g transform="translate(88.33,24.62)">
              <path fill="none" d="M-0.34,0.58 L -0.69 0.12 -0.61 -0.45 -0.15 -0.8 0.42 -0.73 0.77 -0.27 0.7 0.31 0.24 0.66 -0.34 0.58" class="primitive"/>
            </g>
          </g>
        </g>
        <g stroke-width="0.3" fill="#000000" fill-opacity="0.000" class="geometry" id="img-bcdd7c3b-20">
          <g class="color_LCHab{Float32}(70.0f0,60.0f0,240.0f0)" stroke-dasharray="none" stroke="#00BFFF" id="img-bcdd7c3b-21">
            <g transform="translate(61.5,50.12)">
              <path fill="none" d="M-9.92,19.24 L 15.38 -6.06 15.16 -6.59 -20.62 -6.59" class="primitive"/>
            </g>
          </g>
        </g>
        <g stroke-width="0.3" fill="#000000" fill-opacity="0.000" class="geometry" id="img-bcdd7c3b-22">
          <g class="color_LCHab{Float32}(70.0f0,60.0f0,240.0f0)" stroke-dasharray="none" stroke="#00BFFF" id="img-bcdd7c3b-23">
            <g transform="translate(92.61,46.66)">
              <path fill="none" d="M21.34,-3.13 L 0.18 -3.13 -0.04 -2.6 -0.58 -2.38 -1.11 -2.6 -1.33 -3.13 -14.43 -3.13 -14.66 -2.6 10.64 22.7" class="primitive"/>
            </g>
          </g>
        </g>
        <g stroke-width="0.3" fill="#000000" fill-opacity="0.000" class="geometry" id="img-bcdd7c3b-24">
          <g class="color_LCHab{Float32}(70.0f0,60.0f0,240.0f0)" stroke-dasharray="none" stroke="#00BFFF" id="img-bcdd7c3b-25">
            <g transform="translate(61.5,36.94)">
              <path fill="none" d="M-20.62,6.59 L 15.16 6.59 15.38 6.06 -9.92 -19.24" class="primitive"/>
            </g>
          </g>
        </g>
        <g stroke-width="0.3" fill="#000000" fill-opacity="0.000" class="geometry" id="img-bcdd7c3b-26">
          <g class="color_LCHab{Float32}(70.0f0,60.0f0,240.0f0)" stroke-dasharray="none" stroke="#00BFFF" id="img-bcdd7c3b-27">
            <g transform="translate(92.61,40.8)">
              <path fill="none" d="M10.64,-23.1 L -14.66 2.19 -14.43 2.73 -1.33 2.73 -1.11 3.26 -0.58 3.48 -0.04 3.26 0.18 2.73 21.34 2.73" class="primitive"/>
            </g>
          </g>
        </g>
      </g>
    </g>
  </g>
  <g class="guide ylabels" font-size="2.82" font-family="'PT Sans Caption','Helvetica Neue','Helvetica',sans-serif" fill="#6C606B" id="img-bcdd7c3b-28">
    <g transform="translate(37.88,80.06)">
      <g class="primitive">
        <text text-anchor="end" dy="0.35em">-10</text>
      </g>
    </g>
    <g transform="translate(37.88,61.8)">
      <g class="primitive">
        <text text-anchor="end" dy="0.35em">-5</text>
      </g>
    </g>
    <g transform="translate(37.88,43.53)">
      <g class="primitive">
        <text text-anchor="end" dy="0.35em">0</text>
      </g>
    </g>
    <g transform="translate(37.88,25.27)">
      <g class="primitive">
        <text text-anchor="end" dy="0.35em">5</text>
      </g>
    </g>
    <g transform="translate(37.88,7)">
      <g class="primitive">
        <text text-anchor="end" dy="0.35em">10</text>
      </g>
    </g>
  </g>
  <g font-size="3.88" font-family="'PT Sans','Helvetica Neue','Helvetica',sans-serif" fill="#564A55" stroke="#000000" stroke-opacity="0.000" id="img-bcdd7c3b-29">
    <g transform="translate(28.89,41.53)">
      <g class="primitive">
        <text text-anchor="middle" dy="0.35em" transform="rotate(-90,0, 2)">Im</text>
      </g>
    </g>
  </g>
</g>
<defs>
  <clipPath id="img-bcdd7c3b-4">
    <path d="M38.88,5 L 115.95 5 115.95 82.06 38.88 82.06" />
  </clipPath>
</defs>
</svg>
