<?xml version="1.0" encoding="UTF-8"?>
<svg xmlns="http://www.w3.org/2000/svg"
     xmlns:xlink="http://www.w3.org/1999/xlink"
     xmlns:gadfly="http://www.gadflyjl.org/ns"
     version="1.2"
     width="141.42mm" height="100mm" viewBox="0 0 141.42 100"
     stroke="none"
     fill="#000000"
     stroke-width="0.3"
     font-size="3.88"
>
<g class="plotroot xscalable yscalable" id="img-02c295b6-1">
  <g font-size="3.88" font-family="'PT Sans','Helvetica Neue','Helvetica',sans-serif" fill="#564A55" stroke="#000000" stroke-opacity="0.000" id="img-02c295b6-2">
    <g transform="translate(77.41,89.18)">
      <g class="primitive">
        <text text-anchor="middle" dy="0.6em">Re</text>
      </g>
    </g>
  </g>
  <g class="guide xlabels" font-size="2.82" font-family="'PT Sans Caption','Helvetica Neue','Helvetica',sans-serif" fill="#6C606B" id="img-02c295b6-3">
    <g transform="translate(40.88,83.06)">
      <g class="primitive">
        <text text-anchor="middle" dy="0.6em">-10</text>
      </g>
    </g>
    <g transform="translate(59.15,83.06)">
      <g class="primitive">
        <text text-anchor="middle" dy="0.6em">-5</text>
      </g>
    </g>
    <g transform="translate(77.41,83.06)">
      <g class="primitive">
        <text text-anchor="middle" dy="0.6em">0</text>
      </g>
    </g>
    <g transform="translate(95.68,83.06)">
      <g class="primitive">
        <text text-anchor="middle" dy="0.6em">5</text>
      </g>
    </g>
    <g transform="translate(113.95,83.06)">
      <g class="primitive">
        <text text-anchor="middle" dy="0.6em">10</text>
      </g>
    </g>
  </g>
  <g clip-path="url(#img-02c295b6-4)">
    <g id="img-02c295b6-5">
      <g pointer-events="visible" opacity="1" fill="#000000" fill-opacity="0.000" stroke="#000000" stroke-opacity="0.000" class="guide background" id="img-02c295b6-6">
        <g transform="translate(77.41,43.53)">
          <path d="M-38.53,-38.53 L 38.53 -38.53 38.53 38.53 -38.53 38.53 z" class="primitive"/>
        </g>
      </g>
      <g class="guide ygridlines xfixed" stroke-dasharray="0.5,0.5" stroke-width="0.2" stroke="#D0D0E0" id="img-02c295b6-7">
        <g transform="translate(77.41,80.06)">
          <path fill="none" d="M-38.53,0 L 38.53 0" class="primitive"/>
        </g>
        <g transform="translate(77.41,61.8)">
          <path fill="none" d="M-38.53,0 L 38.53 0" class="primitive"/>
        </g>
        <g transform="translate(77.41,43.53)">
          <path fill="none" d="M-38.53,0 L 38.53 0" class="primitive"/>
        </g>
        <g transform="translate(77.41,25.27)">
          <path fill="none" d="M-38.53,0 L 38.53 0" class="primitive"/>
        </g>
        <g transform="translate(77.41,7)">
          <path fill="none" d="M-38.53,0 L 38.53 0" class="primitive"/>
        </g>
      </g>
      <g class="guide xgridlines yfixed" stroke-dasharray="0.5,0.5" stroke-width="0.2" stroke="#D0D0E0" id="img-02c295b6-8">
        <g transform="translate(40.88,43.53)">
          <path fill="none" d="M0,-38.53 L 0 38.53" class="primitive"/>
        </g>
        <g transform="translate(59.15,43.53)">
          <path fill="none" d="M0,-38.53 L 0 38.53" class="primitive"/>
        </g>
        <g transform="translate(77.41,43.53)">
          <path fill="none" d="M0,-38.53 L 0 38.53" class="primitive"/>
        </g>
        <g transform="translate(95.68,43.53)">
          <path fill="none" d="M0,-38.53 L 0 38.53" class="primitive"/>
        </g>
        <g transform="translate(113.95,43.53)">
          <path fill="none" d="M0,-38.53 L 0 38.53" class="primitive"/>
        </g>
      </g>
      <g class="plotpanel" id="img-02c295b6-9">
        <metadata>
          <boundingbox value="38.88428922976587mm 5.0mm 77.0611111111111mm 77.0611111111111mm"/>
          <unitbox value="-10.547486883126759 10.547486883126759 21.094973766253517 -21.094973766253517"/>
        </metadata>
        <g stroke-width="0.3" fill="#000000" fill-opacity="0.000" class="geometry" id="img-02c295b6-10">
          <g class="color_LCHab{Float32}(70.0f0,60.0f0,240.0f0)" stroke-dasharray="none" stroke="#00BFFF" id="img-02c295b6-11">
            <g transform="translate(77.41,61.59)">
              <path fill="none" d="M0,-1.62 L 1.29 -1.09 1.83 0.2 1.29 1.49 0 2.03 -1.29 1.49 -1.83 0.2 -1.29 -1.09 0 -1.62" class="primitive"/>
            </g>
          </g>
        </g>
        <g stroke-width="0.3" fill="#000000" fill-opacity="0.000" class="geometry" id="img-02c295b6-12">
          <g class="color_LCHab{Float32}(70.0f0,60.0f0,240.0f0)" stroke-dasharray="none" stroke="#00BFFF" id="img-02c295b6-13">
            <g transform="translate(77.21,43.53)">
              <path fill="none" d="M-1.62,0 L -1.09 -1.29 0.2 -1.83 1.49 -1.29 2.03 0 1.49 1.29 0.2 1.83 -1.09 1.29 -1.62 0" class="primitive"/>
            </g>
          </g>
        </g>
        <g stroke-width="0.3" fill="#000000" fill-opacity="0.000" class="geometry" id="img-02c295b6-14">
          <g class="color_LCHab{Float32}(70.0f0,60.0f0,240.0f0)" stroke-dasharray="none" stroke="#00BFFF" id="img-02c295b6-15">
            <g transform="translate(62.35,52.23)">
              <path fill="none" d="M-3.2,22.94 L 13.24 -5.54 11.42 -8.7 -21.46 -8.7" class="primitive"/>
            </g>
          </g>
        </g>
        <g stroke-width="0.3" fill="#000000" fill-opacity="0.000" class="geometry" id="img-02c295b6-16">
          <g class="color_LCHab{Float32}(70.0f0,60.0f0,240.0f0)" stroke-dasharray="none" stroke="#00BFFF" id="img-02c295b6-17">
            <g transform="translate(92.23,46.91)">
              <path fill="none" d="M21.72,-3.38 L 1.62 -3.38 1.09 -4.67 -0.2 -5.2 -1.49 -4.67 -2.03 -3.38 -11.16 -3.38 -12.99 -0.21 3.45 28.26" class="primitive"/>
            </g>
          </g>
        </g>
        <g stroke-width="0.3" fill="#000000" fill-opacity="0.000" class="geometry" id="img-02c295b6-18">
          <g class="color_LCHab{Float32}(70.0f0,60.0f0,240.0f0)" stroke-dasharray="none" stroke="#00BFFF" id="img-02c295b6-19">
            <g transform="translate(84.48,27.58)">
              <path fill="none" d="M-25.33,-15.68 L -8.9 12.79 -5.24 12.79 -0.68 4.88 0.71 5.06 1.82 4.21 2 2.83 1.15 1.72 2.98 -1.44 4.36 -1.26 5.47 -2.11 5.65 -3.5 4.8 -4.61 11.2 -15.68" class="primitive"/>
            </g>
          </g>
        </g>
      </g>
    </g>
  </g>
  <g class="guide ylabels" font-size="2.82" font-family="'PT Sans Caption','Helvetica Neue','Helvetica',sans-serif" fill="#6C606B" id="img-02c295b6-20">
    <g transform="translate(37.88,80.06)">
      <g class="primitive">
        <text text-anchor="end" dy="0.35em">-10</text>
      </g>
    </g>
    <g transform="translate(37.88,61.8)">
      <g class="primitive">
        <text text-anchor="end" dy="0.35em">-5</text>
      </g>
    </g>
    <g transform="translate(37.88,43.53)">
      <g class="primitive">
        <text text-anchor="end" dy="0.35em">0</text>
      </g>
    </g>
    <g transform="translate(37.88,25.27)">
      <g class="primitive">
        <text text-anchor="end" dy="0.35em">5</text>
      </g>
    </g>
    <g transform="translate(37.88,7)">
      <g class="primitive">
        <text text-anchor="end" dy="0.35em">10</text>
      </g>
    </g>
  </g>
  <g font-size="3.88" font-family="'PT Sans','Helvetica Neue','Helvetica',sans-serif" fill="#564A55" stroke="#000000" stroke-opacity="0.000" id="img-02c295b6-21">
    <g transform="translate(28.89,41.53)">
      <g class="primitive">
        <text text-anchor="middle" dy="0.35em" transform="rotate(-90,0, 2)">Im</text>
      </g>
    </g>
  </g>
</g>
<defs>
  <clipPath id="img-02c295b6-4">
    <path d="M38.88,5 L 115.95 5 115.95 82.06 38.88 82.06" />
  </clipPath>
</defs>
</svg>
