<?xml version="1.0" encoding="UTF-8"?>
<svg xmlns="http://www.w3.org/2000/svg"
     xmlns:xlink="http://www.w3.org/1999/xlink"
     xmlns:gadfly="http://www.gadflyjl.org/ns"
     version="1.2"
     width="141.42mm" height="100mm" viewBox="0 0 141.42 100"
     stroke="none"
     fill="#000000"
     stroke-width="0.3"
     font-size="3.88"
>
<g class="plotroot xscalable yscalable" id="img-2492268f-1">
  <g font-size="3.88" font-family="'PT Sans','Helvetica Neue','Helvetica',sans-serif" fill="#564A55" stroke="#000000" stroke-opacity="0.000" id="img-2492268f-2">
    <g transform="translate(77.41,89.18)">
      <g class="primitive">
        <text text-anchor="middle" dy="0.6em">Re</text>
      </g>
    </g>
  </g>
  <g class="guide xlabels" font-size="2.82" font-family="'PT Sans Caption','Helvetica Neue','Helvetica',sans-serif" fill="#6C606B" id="img-2492268f-3">
    <g transform="translate(40.88,83.06)">
      <g class="primitive">
        <text text-anchor="middle" dy="0.6em">-10</text>
      </g>
    </g>
    <g transform="translate(59.15,83.06)">
      <g class="primitive">
        <text text-anchor="middle" dy="0.6em">-5</text>
      </g>
    </g>
    <g transform="translate(77.41,83.06)">
      <g class="primitive">
        <text text-anchor="middle" dy="0.6em">0</text>
      </g>
    </g>
    <g transform="translate(95.68,83.06)">
      <g class="primitive">
        <text text-anchor="middle" dy="0.6em">5</text>
      </g>
    </g>
    <g transform="translate(113.95,83.06)">
      <g class="primitive">
        <text text-anchor="middle" dy="0.6em">10</text>
      </g>
    </g>
  </g>
  <g clip-path="url(#img-2492268f-4)">
    <g id="img-2492268f-5">
      <g pointer-events="visible" opacity="1" fill="#000000" fill-opacity="0.000" stroke="#000000" stroke-opacity="0.000" class="guide background" id="img-2492268f-6">
        <g transform="translate(77.41,43.53)">
          <path d="M-38.53,-38.53 L 38.53 -38.53 38.53 38.53 -38.53 38.53 z" class="primitive"/>
        </g>
      </g>
      <g class="guide ygridlines xfixed" stroke-dasharray="0.5,0.5" stroke-width="0.2" stroke="#D0D0E0" id="img-2492268f-7">
        <g transform="translate(77.41,80.06)">
          <path fill="none" d="M-38.53,0 L 38.53 0" class="primitive"/>
        </g>
        <g transform="translate(77.41,61.8)">
          <path fill="none" d="M-38.53,0 L 38.53 0" class="primitive"/>
        </g>
        <g transform="translate(77.41,43.53)">
          <path fill="none" d="M-38.53,0 L 38.53 0" class="primitive"/>
        </g>
        <g transform="translate(77.41,25.27)">
          <path fill="none" d="M-38.53,0 L 38.53 0" class="primitive"/>
        </g>
        <g transform="translate(77.41,7)">
          <path fill="none" d="M-38.53,0 L 38.53 0" class="primitive"/>
        </g>
      </g>
      <g class="guide xgridlines yfixed" stroke-dasharray="0.5,0.5" stroke-width="0.2" stroke="#D0D0E0" id="img-2492268f-8">
        <g transform="translate(40.88,43.53)">
          <path fill="none" d="M0,-38.53 L 0 38.53" class="primitive"/>
        </g>
        <g transform="translate(59.15,43.53)">
          <path fill="none" d="M0,-38.53 L 0 38.53" class="primitive"/>
        </g>
        <g transform="translate(77.41,43.53)">
          <path fill="none" d="M0,-38.53 L 0 38.53" class="primitive"/>
        </g>
        <g transform="translate(95.68,43.53)">
          <path fill="none" d="M0,-38.53 L 0 38.53" class="primitive"/>
        </g>
        <g transform="translate(113.95,43.53)">
          <path fill="none" d="M0,-38.53 L 0 38.53" class="primitive"/>
        </g>
      </g>
      <g class="plotpanel" id="img-2492268f-9">
        <metadata>
          <boundingbox value="38.88428922976587mm 5.0mm 77.0611111111111mm 77.0611111111111mm"/>
          <unitbox value="-10.547486883126759 10.547486883126759 21.094973766253517 -21.094973766253517"/>
        </metadata>
        <g stroke-width="0.3" fill="#000000" fill-opacity="0.000" class="geometry" id="img-2492268f-10">
          <g class="color_LCHab{Float32}(70.0f0,60.0f0,240.0f0)" stroke-dasharray="none" stroke="#00BFFF" id="img-2492268f-11">
            <g transform="translate(77.39,43.53)">
              <path fill="none" d="M-0.17,0 L -0.11 -0.13 0.02 -0.19 0.16 -0.13 0.21 0 0.16 0.13 0.02 0.19 -0.11 0.13 -0.17 0" class="primitive"/>
            </g>
          </g>
        </g>
        <g stroke-width="0.3" fill="#000000" fill-opacity="0.000" class="geometry" id="img-2492268f-12">
          <g class="color_LCHab{Float32}(70.0f0,60.0f0,240.0f0)" stroke-dasharray="none" stroke="#00BFFF" id="img-2492268f-13">
            <g transform="translate(84.7,30.91)">
              <path fill="none" d="M-0.17,0.29 L -0.35 0.06 -0.31 -0.23 -0.08 -0.41 0.21 -0.37 0.39 -0.14 0.35 0.15 0.12 0.33 -0.17 0.29" class="primitive"/>
            </g>
          </g>
        </g>
        <g stroke-width="0.3" fill="#000000" fill-opacity="0.000" class="geometry" id="img-2492268f-14">
          <g class="color_LCHab{Float32}(70.0f0,60.0f0,240.0f0)" stroke-dasharray="none" stroke="#00BFFF" id="img-2492268f-15">
            <g transform="translate(88.35,24.59)">
              <path fill="none" d="M-0.17,0.29 L -0.35 0.06 -0.31 -0.23 -0.08 -0.41 0.21 -0.37 0.39 -0.14 0.35 0.15 0.12 0.33 -0.17 0.29" class="primitive"/>
            </g>
          </g>
        </g>
        <g stroke-width="0.3" fill="#000000" fill-opacity="0.000" class="geometry" id="img-2492268f-16">
          <g class="color_LCHab{Float32}(70.0f0,60.0f0,240.0f0)" stroke-dasharray="none" stroke="#00BFFF" id="img-2492268f-17">
            <g transform="translate(77.41,60.58)">
              <path fill="none" d="M13.98,16.7 L 0.15 -16.7 -0.15 -16.7 -13.98 16.7" class="primitive"/>
            </g>
          </g>
        </g>
        <g stroke-width="0.3" fill="#000000" fill-opacity="0.000" class="geometry" id="img-2492268f-18">
          <g class="color_LCHab{Float32}(70.0f0,60.0f0,240.0f0)" stroke-dasharray="none" stroke="#00BFFF" id="img-2492268f-19">
            <g transform="translate(59.66,47.06)">
              <path fill="none" d="M-16,10.45 L 17.4 -3.39 17.37 -3.53 -18.78 -3.53" class="primitive"/>
            </g>
          </g>
        </g>
        <g stroke-width="0.3" fill="#000000" fill-opacity="0.000" class="geometry" id="img-2492268f-20">
          <g class="color_LCHab{Float32}(70.0f0,60.0f0,240.0f0)" stroke-dasharray="none" stroke="#00BFFF" id="img-2492268f-21">
            <g transform="translate(93.42,45.2)">
              <path fill="none" d="M20.52,-1.67 L -1.01 -1.67 -1.13 -1.4 -1.4 -1.29 -1.67 -1.4 -1.78 -1.67 -15.63 -1.67 -15.66 -1.53 17.74 12.31" class="primitive"/>
            </g>
          </g>
        </g>
        <g stroke-width="0.3" fill="#000000" fill-opacity="0.000" class="geometry" id="img-2492268f-22">
          <g class="color_LCHab{Float32}(70.0f0,60.0f0,240.0f0)" stroke-dasharray="none" stroke="#00BFFF" id="img-2492268f-23">
            <g transform="translate(59.66,40)">
              <path fill="none" d="M-18.78,3.53 L 17.37 3.53 17.4 3.39 -16 -10.45" class="primitive"/>
            </g>
          </g>
        </g>
        <g stroke-width="0.3" fill="#000000" fill-opacity="0.000" class="geometry" id="img-2492268f-24">
          <g class="color_LCHab{Float32}(70.0f0,60.0f0,240.0f0)" stroke-dasharray="none" stroke="#00BFFF" id="img-2492268f-25">
            <g transform="translate(77.41,26.48)">
              <path fill="none" d="M-13.98,-16.7 L -0.15 16.7 0.15 16.7 13.98 -16.7" class="primitive"/>
            </g>
          </g>
        </g>
        <g stroke-width="0.3" fill="#000000" fill-opacity="0.000" class="geometry" id="img-2492268f-26">
          <g class="color_LCHab{Float32}(70.0f0,60.0f0,240.0f0)" stroke-dasharray="none" stroke="#00BFFF" id="img-2492268f-27">
            <g transform="translate(93.42,42.06)">
              <path fill="none" d="M17.74,-12.51 L -15.66 1.32 -15.63 1.47 -1.78 1.47 -1.67 1.74 -1.4 1.85 -1.13 1.74 -1.01 1.47 20.52 1.47" class="primitive"/>
            </g>
          </g>
        </g>
      </g>
    </g>
  </g>
  <g class="guide ylabels" font-size="2.82" font-family="'PT Sans Caption','Helvetica Neue','Helvetica',sans-serif" fill="#6C606B" id="img-2492268f-28">
    <g transform="translate(37.88,80.06)">
      <g class="primitive">
        <text text-anchor="end" dy="0.35em">-10</text>
      </g>
    </g>
    <g transform="translate(37.88,61.8)">
      <g class="primitive">
        <text text-anchor="end" dy="0.35em">-5</text>
      </g>
    </g>
    <g transform="translate(37.88,43.53)">
      <g class="primitive">
        <text text-anchor="end" dy="0.35em">0</text>
      </g>
    </g>
    <g transform="translate(37.88,25.27)">
      <g class="primitive">
        <text text-anchor="end" dy="0.35em">5</text>
      </g>
    </g>
    <g transform="translate(37.88,7)">
      <g class="primitive">
        <text text-anchor="end" dy="0.35em">10</text>
      </g>
    </g>
  </g>
  <g font-size="3.88" font-family="'PT Sans','Helvetica Neue','Helvetica',sans-serif" fill="#564A55" stroke="#000000" stroke-opacity="0.000" id="img-2492268f-29">
    <g transform="translate(28.89,41.53)">
      <g class="primitive">
        <text text-anchor="middle" dy="0.35em" transform="rotate(-90,0, 2)">Im</text>
      </g>
    </g>
  </g>
</g>
<defs>
  <clipPath id="img-2492268f-4">
    <path d="M38.88,5 L 115.95 5 115.95 82.06 38.88 82.06" />
  </clipPath>
</defs>
</svg>
