<?xml version="1.0" encoding="UTF-8"?>
<svg xmlns="http://www.w3.org/2000/svg"
     xmlns:xlink="http://www.w3.org/1999/xlink"
     xmlns:gadfly="http://www.gadflyjl.org/ns"
     version="1.2"
     width="141.42mm" height="100mm" viewBox="0 0 141.42 100"
     stroke="none"
     fill="#000000"
     stroke-width="0.3"
     font-size="3.88"
>
<g class="plotroot xscalable yscalable" id="img-47dc8352-1">
  <g font-size="3.88" font-family="'PT Sans','Helvetica Neue','Helvetica',sans-serif" fill="#564A55" stroke="#000000" stroke-opacity="0.000" id="img-47dc8352-2">
    <g transform="translate(77.41,89.18)">
      <g class="primitive">
        <text text-anchor="middle" dy="0.6em">Re</text>
      </g>
    </g>
  </g>
  <g class="guide xlabels" font-size="2.82" font-family="'PT Sans Caption','Helvetica Neue','Helvetica',sans-serif" fill="#6C606B" id="img-47dc8352-3">
    <g transform="translate(40.88,83.06)">
      <g class="primitive">
        <text text-anchor="middle" dy="0.6em">-10</text>
      </g>
    </g>
    <g transform="translate(59.15,83.06)">
      <g class="primitive">
        <text text-anchor="middle" dy="0.6em">-5</text>
      </g>
    </g>
    <g transform="translate(77.41,83.06)">
      <g class="primitive">
        <text text-anchor="middle" dy="0.6em">0</text>
      </g>
    </g>
    <g transform="translate(95.68,83.06)">
      <g class="primitive">
        <text text-anchor="middle" dy="0.6em">5</text>
      </g>
    </g>
    <g transform="translate(113.95,83.06)">
      <g class="primitive">
        <text text-anchor="middle" dy="0.6em">10</text>
      </g>
    </g>
  </g>
  <g clip-path="url(#img-47dc8352-4)">
    <g id="img-47dc8352-5">
      <g pointer-events="visible" opacity="1" fill="#000000" fill-opacity="0.000" stroke="#000000" stroke-opacity="0.000" class="guide background" id="img-47dc8352-6">
        <g transform="translate(77.41,43.53)">
          <path d="M-38.53,-38.53 L 38.53 -38.53 38.53 38.53 -38.53 38.53 z" class="primitive"/>
        </g>
      </g>
      <g class="guide ygridlines xfixed" stroke-dasharray="0.5,0.5" stroke-width="0.2" stroke="#D0D0E0" id="img-47dc8352-7">
        <g transform="translate(77.41,80.06)">
          <path fill="none" d="M-38.53,0 L 38.53 0" class="primitive"/>
        </g>
        <g transform="translate(77.41,61.8)">
          <path fill="none" d="M-38.53,0 L 38.53 0" class="primitive"/>
        </g>
        <g transform="translate(77.41,43.53)">
          <path fill="none" d="M-38.53,0 L 38.53 0" class="primitive"/>
        </g>
        <g transform="translate(77.41,25.27)">
          <path fill="none" d="M-38.53,0 L 38.53 0" class="primitive"/>
        </g>
        <g transform="translate(77.41,7)">
          <path fill="none" d="M-38.53,0 L 38.53 0" class="primitive"/>
        </g>
      </g>
      <g class="guide xgridlines yfixed" stroke-dasharray="0.5,0.5" stroke-width="0.2" stroke="#D0D0E0" id="img-47dc8352-8">
        <g transform="translate(40.88,43.53)">
          <path fill="none" d="M0,-38.53 L 0 38.53" class="primitive"/>
        </g>
        <g transform="translate(59.15,43.53)">
          <path fill="none" d="M0,-38.53 L 0 38.53" class="primitive"/>
        </g>
        <g transform="translate(77.41,43.53)">
          <path fill="none" d="M0,-38.53 L 0 38.53" class="primitive"/>
        </g>
        <g transform="translate(95.68,43.53)">
          <path fill="none" d="M0,-38.53 L 0 38.53" class="primitive"/>
        </g>
        <g transform="translate(113.95,43.53)">
          <path fill="none" d="M0,-38.53 L 0 38.53" class="primitive"/>
        </g>
      </g>
      <g class="plotpanel" id="img-47dc8352-9">
        <metadata>
          <boundingbox value="38.88428922976587mm 5.0mm 77.0611111111111mm 77.0611111111111mm"/>
          <unitbox value="-10.547486883126759 10.547486883126759 21.094973766253517 -21.094973766253517"/>
        </metadata>
        <g stroke-width="0.3" fill="#000000" fill-opacity="0.000" class="geometry" id="img-47dc8352-10">
          <g class="color_LCHab{Float32}(70.0f0,60.0f0,240.0f0)" stroke-dasharray="none" stroke="#00BFFF" id="img-47dc8352-11">
            <g transform="translate(77.36,43.53)">
              <path fill="none" d="M-0.42,0 L -0.28 -0.34 0.05 -0.48 0.39 -0.34 0.53 0 0.39 0.34 0.05 0.48 -0.28 0.34 -0.42 0" class="primitive"/>
            </g>
          </g>
        </g>
        <g stroke-width="0.3" fill="#000000" fill-opacity="0.000" class="geometry" id="img-47dc8352-12">
          <g class="color_LCHab{Float32}(70.0f0,60.0f0,240.0f0)" stroke-dasharray="none" stroke="#00BFFF" id="img-47dc8352-13">
            <g transform="translate(84.69,30.92)">
              <path fill="none" d="M-0.21,0.37 L -0.43 0.08 -0.39 -0.28 -0.1 -0.51 0.26 -0.46 0.49 -0.17 0.44 0.19 0.15 0.41 -0.21 0.37" class="primitive"/>
            </g>
          </g>
        </g>
        <g stroke-width="0.3" fill="#000000" fill-opacity="0.000" class="geometry" id="img-47dc8352-14">
          <g class="color_LCHab{Float32}(70.0f0,60.0f0,240.0f0)" stroke-dasharray="none" stroke="#00BFFF" id="img-47dc8352-15">
            <g transform="translate(88.35,24.59)">
              <path fill="none" d="M-0.21,0.37 L -0.43 0.08 -0.39 -0.28 -0.1 -0.51 0.26 -0.46 0.49 -0.17 0.44 0.19 0.15 0.41 -0.21 0.37" class="primitive"/>
            </g>
          </g>
        </g>
        <g stroke-width="0.3" fill="#000000" fill-opacity="0.000" class="geometry" id="img-47dc8352-16">
          <g class="color_LCHab{Float32}(70.0f0,60.0f0,240.0f0)" stroke-dasharray="none" stroke="#00BFFF" id="img-47dc8352-17">
            <g transform="translate(77.41,60.85)">
              <path fill="none" d="M13.98,16.43 L 0.36 -16.43 -0.36 -16.43 -13.98 16.43" class="primitive"/>
            </g>
          </g>
        </g>
        <g stroke-width="0.3" fill="#000000" fill-opacity="0.000" class="geometry" id="img-47dc8352-18">
          <g class="color_LCHab{Float32}(70.0f0,60.0f0,240.0f0)" stroke-dasharray="none" stroke="#00BFFF" id="img-47dc8352-19">
            <g transform="translate(59.39,47.12)">
              <path fill="none" d="M-15.72,10.39 L 17.15 -3.22 17.08 -3.59 -18.5 -3.59" class="primitive"/>
            </g>
          </g>
        </g>
        <g stroke-width="0.3" fill="#000000" fill-opacity="0.000" class="geometry" id="img-47dc8352-20">
          <g class="color_LCHab{Float32}(70.0f0,60.0f0,240.0f0)" stroke-dasharray="none" stroke="#00BFFF" id="img-47dc8352-21">
            <g transform="translate(93.55,45.25)">
              <path fill="none" d="M20.4,-1.72 L -1.04 -1.72 -1.18 -1.38 -1.52 -1.24 -1.86 -1.38 -2 -1.72 -15.18 -1.72 -15.25 -1.36 17.62 12.26" class="primitive"/>
            </g>
          </g>
        </g>
        <g stroke-width="0.3" fill="#000000" fill-opacity="0.000" class="geometry" id="img-47dc8352-22">
          <g class="color_LCHab{Float32}(70.0f0,60.0f0,240.0f0)" stroke-dasharray="none" stroke="#00BFFF" id="img-47dc8352-23">
            <g transform="translate(59.39,39.94)">
              <path fill="none" d="M-18.5,3.59 L 17.08 3.59 17.15 3.22 -15.72 -10.39" class="primitive"/>
            </g>
          </g>
        </g>
        <g stroke-width="0.3" fill="#000000" fill-opacity="0.000" class="geometry" id="img-47dc8352-24">
          <g class="color_LCHab{Float32}(70.0f0,60.0f0,240.0f0)" stroke-dasharray="none" stroke="#00BFFF" id="img-47dc8352-25">
            <g transform="translate(77.41,26.22)">
              <path fill="none" d="M-13.98,-16.43 L -0.36 16.43 0.36 16.43 13.98 -16.43" class="primitive"/>
            </g>
          </g>
        </g>
        <g stroke-width="0.3" fill="#000000" fill-opacity="0.000" class="geometry" id="img-47dc8352-26">
          <g class="color_LCHab{Float32}(70.0f0,60.0f0,240.0f0)" stroke-dasharray="none" stroke="#00BFFF" id="img-47dc8352-27">
            <g transform="translate(93.55,42.06)">
              <path fill="none" d="M17.62,-12.51 L -15.25 1.1 -15.18 1.47 -2 1.47 -1.86 1.8 -1.52 1.94 -1.18 1.8 -1.04 1.47 20.4 1.47" class="primitive"/>
            </g>
          </g>
        </g>
      </g>
    </g>
  </g>
  <g class="guide ylabels" font-size="2.82" font-family="'PT Sans Caption','Helvetica Neue','Helvetica',sans-serif" fill="#6C606B" id="img-47dc8352-28">
    <g transform="translate(37.88,80.06)">
      <g class="primitive">
        <text text-anchor="end" dy="0.35em">-10</text>
      </g>
    </g>
    <g transform="translate(37.88,61.8)">
      <g class="primitive">
        <text text-anchor="end" dy="0.35em">-5</text>
      </g>
    </g>
    <g transform="translate(37.88,43.53)">
      <g class="primitive">
        <text text-anchor="end" dy="0.35em">0</text>
      </g>
    </g>
    <g transform="translate(37.88,25.27)">
      <g class="primitive">
        <text text-anchor="end" dy="0.35em">5</text>
      </g>
    </g>
    <g transform="translate(37.88,7)">
      <g class="primitive">
        <text text-anchor="end" dy="0.35em">10</text>
      </g>
    </g>
  </g>
  <g font-size="3.88" font-family="'PT Sans','Helvetica Neue','Helvetica',sans-serif" fill="#564A55" stroke="#000000" stroke-opacity="0.000" id="img-47dc8352-29">
    <g transform="translate(28.89,41.53)">
      <g class="primitive">
        <text text-anchor="middle" dy="0.35em" transform="rotate(-90,0, 2)">Im</text>
      </g>
    </g>
  </g>
</g>
<defs>
  <clipPath id="img-47dc8352-4">
    <path d="M38.88,5 L 115.95 5 115.95 82.06 38.88 82.06" />
  </clipPath>
</defs>
</svg>
